<?xml version="1.0" standalone="no"?>
<!DOCTYPE svg PUBLIC "-//W3C//DTD SVG 20010904//EN"
 "http://www.w3.org/TR/2001/REC-SVG-20010904/DTD/svg10.dtd">
<svg version="1.0" xmlns="http://www.w3.org/2000/svg"
 width="260.000000pt" height="260.000000pt" viewBox="0 0 260.000000 260.000000"
 preserveAspectRatio="xMidYMid meet">
<metadata>
Created by potrace 1.11, written by Peter Selinger 2001-2013
</metadata>
<g transform="translate(0.000000,260.000000) scale(0.100000,-0.100000)"
fill="#000000" stroke="none">
<path d="M357 2575 c-163 -56 -283 -179 -336 -344 -21 -63 -21 -80 -21 -931 0
-852 0 -868 21 -931 53 -164 165 -281 324 -342 l60 -22 860 -3 c613 -2 877 0
920 8 192 37 364 206 404 398 15 74 15 1710 0 1784 -26 124 -119 258 -229 328
-27 18 -82 43 -121 56 l-71 24 -871 -1 -872 0 -68 -24z m1162 -210 c423 -89
751 -418 848 -850 21 -95 21 -335 0 -430 -97 -434 -418 -755 -851 -852 -96
-21 -336 -21 -432 0 -433 97 -754 418 -851 852 -21 95 -21 335 0 431 50 222
160 419 320 570 179 171 376 261 652 298 53 8 244 -4 314 -19z"/>
<path d="M800 1522 c0 -431 3 -459 57 -572 37 -77 141 -178 225 -219 264 -130
592 5 687 282 87 253 -40 529 -289 627 -119 47 -248 45 -371 -5 l-59 -24 0
155 0 154 -125 0 -125 0 0 -398z m605 -123 c100 -47 158 -160 137 -265 -47
-233 -354 -276 -461 -65 -61 119 -9 271 111 329 59 29 153 29 213 1z"/>
</g>
</svg>
